#!OML:ASF I:\Actors\actors\Patient Classification 1\Patient 1\Session 1\Subject1.ASF
:FULLY-SPECIFIED
:DEGREES
166
root -0.858646 17.5796 7.26819 10.5942 7.17363 -8.48394
lowerback 8.60172 0.410053 4.56607
upperback -5.6792 1.1972 0.231309
thorax -10.8794 0.246258 -2.53163
lowerneck -14.3306 1.43433 2.59504
upperneck 27.3663 0.294032 3.8237
head 11.2595 0.894953 0.997983
rclavicle -1.97791e-014 7.15625e-015
rhumerus -41.3542 8.46618 -94.0291
rradius 91.8996
rwrist 31.487
rhand -19.9077 -47.8302
rfingers 7.12502
rthumb 6.42896 -77.7126
lclavicle -1.97791e-014 7.15625e-015
lhumerus -33.5444 -61.1801 124.627
lradius 74.0061
lwrist 53.3909
lhand -39.3514 -27.0166
lfingers 7.12502
lthumb -12.3425 2.59904
rfemur -5.5313 20.712 26.969
rtibia 1.8234
rfoot -14.3504 -25.2619
rtoes 9.03096
lfemur -13.3351 -18.3214 -2.99653
ltibia 9.30294
lfoot -9.26537 20.7008
ltoes -14.6326
167
root -0.850611 17.579 7.27199 10.4211 7.2157 -8.44276
lowerback 8.72048 0.701505 4.5025
upperback -5.67595 1.59375 0.279768
thorax -10.9183 0.443058 -2.51582
lowerneck -14.2702 1.13899 2.24662
upperneck 26.887 -0.0982134 4.123
head 11.0677 0.710214 1.10436
rclavicle 9.49197e-015 -1.59028e-015
rhumerus -41.297 9.09055 -95.3643
rradius 90.9341
rwrist 29.7654
rhand -18.5364 -48.0358
rfingers 7.12502
rthumb 7.75261 -77.8737
lclavicle 9.49197e-015 -1.59028e-015
lhumerus -34.9148 -60.28 123.689
lradius 74.4924
lwrist 52.1033
lhand -38.295 -24.994
lfingers 7.12502
lthumb -11.3238 4.6803
rfemur -5.46776 20.144 26.8961
rtibia 2.03035
rfoot -14.361 -24.6053
rtoes 9.0812
lfemur -13.4086 -18.6187 -2.96958
ltibia 9.71357
lfoot -9.22129 20.0529
ltoes -15.0535
168
root -0.841029 17.581 7.2764 10.2292 7.27202 -8.41038
lowerback 8.86269 0.98138 4.45706
upperback -5.67201 1.97817 0.326719
thorax -10.9725 0.632001 -2.51123
lowerneck -14.1687 0.835098 1.91954
upperneck 26.3177 -0.508894 4.45102
head 10.8396 0.519548 1.21334
rclavicle -1.02871e-014 -8.74653e-015
rhumerus -41.1784 9.68229 -96.5098
rradius 90.3227
rwrist 28.2456
rhand -17.1636 -47.9288
rfingers 7.12502
rthumb 9.07745 -77.7134
lclavicle -1.02871e-014 -8.74653e-015
lhumerus -36.2692 -59.4304 122.571
lradius 75.2792
lwrist 50.0555
lhand -37.0041 -22.9309
lfingers 7.12502
lthumb -10.0786 6.80777
rfemur -5.37289 19.6241 26.8351
rtibia 2.22579
rfoot -14.4137 -24.019
rtoes 9.18156
lfemur -13.5148 -19.0728 -2.88159
ltibia 10.167
lfoot -9.10872 19.3001
ltoes -15.5225
169
root -0.830188 17.5854 7.28142 10.0128 7.34236 -8.39689
lowerback 9.01654 1.25079 4.44006
upperback -5.66052 2.35168 0.363789
thorax -11.0261 0.813004 -2.53272
lowerneck -14.0285 0.511451 1.5979
upperneck 25.6694 -0.959543 4.84649
head 10.5819 0.315729 1.33905
rclavicle 2.65378e-014 2.8625e-014
rhumerus -40.9964 10.3096 -97.5203
rradius 89.986
rwrist 26.8568
rhand -16.0213 -47.5587
rfingers 7.12502
rthumb 10.1796 -77.2924
lclavicle 2.65378e-014 2.8625e-014
lhumerus -37.5151 -58.589 121.225
lradius 76.2218
lwrist 47.0997
lhand -35.5052 -20.8869
lfingers 7.12502
lthumb -8.63235 8.91661
rfemur -5.22983 19.2049 26.81
rtibia 2.39977
rfoot -14.5017 -23.5703
rtoes 9.28645
lfemur -13.6452 -19.6198 -2.72215
ltibia 10.6498
lfoot -8.94951 18.418
ltoes -16.0144
170
root -0.817576 17.5913 7.28695 9.77106 7.41977 -8.40053
lowerback 9.16559 1.50994 4.454
upperback -5.63791 2.71331 0.385259
thorax -11.0638 0.985638 -2.58699
lowerneck -13.8638 0.159979 1.25312
upperneck 24.9835 -1.46435 5.34582
head 10.3152 0.0939383 1.49827
rclavicle -2.22142e-014 1.90833e-014
rhumerus -40.7343 11.0756 -98.4588
rradius 89.8486
rwrist 25.1702
rhand -15.0987 -47.1669
rfingers 7.12502
rthumb 11.0696 -76.855
lclavicle -2.22142e-014 1.90833e-014
lhumerus -38.542 -57.6915 119.6
lradius 77.1752
lwrist 43.1805
lhand -33.8536 -18.949
lfingers 7.12502
lthumb -7.03822 10.914
rfemur -5.02819 18.9224 26.825
rtibia 2.54143
rfoot -14.604 -23.3048
rtoes 9.33068
lfemur -13.7798 -20.182 -2.50984
ltibia 11.1398
lfoot -8.78454 17.4055
ltoes -16.4993
171
root -0.802276 17.5979 7.29333 9.50991 7.48667 -8.41104
lowerback 9.28461 1.76065 4.48993
upperback -5.60372 3.06267 0.389453
thorax -11.0693 1.15094 -2.66932
lowerneck -13.6551 -0.221497 0.901487
upperneck 24.2559 -2.0194 5.9187
head 10.0358 -0.147453 1.67762
rclavicle -3.06128e-014 1.51076e-014
rhumerus -40.3736 12.0707 -99.353
rradius 89.8368
rwrist 23.0259
rhand -14.326 -46.989
rfingers 7.12502
rthumb 11.8148 -76.6358
lclavicle -3.06128e-014 1.51076e-014
lhumerus -39.2604 -56.6717 117.669
lradius 78.0293
lwrist 38.3473
lhand -32.096 -17.1857
lfingers 7.12502
lthumb -5.34142 12.7269
rfemur -4.76221 18.8057 26.8708
rtibia 2.64085
rfoot -14.697 -23.2431
rtoes 9.24921
lfemur -13.8797 -20.6899 -2.28867
ltibia 11.5973
lfoot -8.66521 16.3093
ltoes -16.9546
172
root -0.783115 17.6038 7.30118 9.24262 7.51941 -8.42088
lowerback 9.34191 2.00445 4.53995
upperback -5.56224 3.39948 0.381327
thorax -11.0283 1.31027 -2.76776
lowerneck -13.4275 -0.628864 0.534456
upperneck 23.5485 -2.61525 6.54826
head 9.7719 -0.405774 1.87498
rclavicle -4.38817e-014 -1.35174e-014
rhumerus -39.9045 13.375 -100.221
rradius 89.8838
rwrist 20.3718
rhand -13.7248 -47.1481
rfingers 7.12502
rthumb 12.3944 -76.7606
lclavicle -4.38817e-014 -1.35174e-014
lhumerus -39.6243 -55.4568 115.442
lradius 78.7214
lwrist 32.724
lhand -30.2708 -15.6129
lfingers 7.12502
lthumb -3.57897 14.3368
rfemur -4.43808 18.8537 26.9346
rtibia 2.695
rfoot -14.7677 -23.3611
rtoes 9.01521
lfemur -13.8985 -21.1041 -2.1092
ltibia 11.9752
lfoot -8.64342 15.2422
ltoes -17.2901
173
root -0.758994 17.6075 7.31066 8.97997 7.49581 -8.43201
lowerback 9.32291 2.23677 4.60053
upperback -5.52046 3.71789 0.375222
thorax -10.9412 1.46192 -2.86217
lowerneck -13.2044 -1.04827 0.14715
upperneck 22.9129 -3.2268 7.19985
head 9.54516 -0.672093 2.08308
rclavicle 2.39039e-014 -2.06736e-014
rhumerus -39.3335 15.0722 -101.099
rradius 89.9337
rwrist 17.1066
rhand -13.2815 -47.6855
rfingers 7.12502
rthumb 12.8219 -77.2718
lclavicle 2.39039e-014 -2.06736e-014
lhumerus -39.6436 -53.9703 112.969
lradius 79.2411
lwrist 26.5073
lhand -28.4125 -14.1509
lfingers 7.12502
lthumb -1.7843 15.8213
rfemur -4.06783 19.0455 27.0098
rtibia 2.70173
rfoot -14.8143 -23.611
rtoes 8.66005
lfemur -13.7936 -21.4069 -2.0142
ltibia 12.2364
lfoot -8.7421 14.3504
ltoes -17.4184
174
root -0.729291 17.6079 7.32157 8.72847 7.40111 -8.44613
lowerback 9.22364 2.44981 4.66768
upperback -5.48067 4.0078 0.38395
thorax -10.8103 1.60203 -2.93361
lowerneck -13.0026 -1.46176 -0.234808
upperneck 22.3737 -3.82282 7.80771
head 9.36347 -0.935354 2.2788
rclavicle -3.46382e-014 3.97569e-015
rhumerus -38.638 17.1369 -101.961
rradius 89.9541
rwrist 13.361
rhand -12.5905 -48.4878
rfingers 7.12502
rthumb 13.4879 -78.031
lclavicle -3.46382e-014 3.97569e-015
lhumerus -39.3987 -52.1801 110.342
lradius 79.633
lwrist 20.0254
lhand -26.554 -12.7133
lfingers 7.12502
lthumb 0.0106397 17.2664
rfemur -3.66297 19.3616 27.0907
rtibia 2.66555
rfoot -14.8509 -23.9477
rtoes 8.25294
lfemur -13.5327 -21.585 -2.0431
ltibia 12.3556
lfoot -8.9328 13.7702
ltoes -17.3685
175
root -0.693832 17.6047 7.33295 8.48461 7.23169 -8.45834
lowerback 9.06352 2.63722 4.74404
upperback -5.4403 4.26186 0.408298
thorax -10.6453 1.72665 -2.98189
lowerneck -12.8508 -1.856 -0.571964
upperneck 21.9623 -4.38436 8.30901
head 9.23817 -1.18752 2.43633
rclavicle 2.01269e-015 -7.95139e-015
rhumerus -37.78 19.5138 -102.8
rradius 89.9053
rwrist 9.09317
rhand -11.5332 -49.3803
rfingers 7.12502
rthumb 14.5068 -78.8531
lclavicle 2.01269e-015 -7.95139e-015
lhumerus -39.0126 -50.1313 107.666
lradius 79.9768
lwrist 13.7768
lhand -24.6968 -11.333
lfingers 7.12502
lthumb 1.8044 18.6391
rfemur -3.23259 19.7667 27.1655
rtibia 2.60114
rfoot -14.8968 -24.3225
rtoes 7.86738
lfemur -13.0961 -21.6444 -2.23036
ltibia 12.3207
lfoot -9.16373 13.5939
ltoes -17.1949
